<svg xmlns="http://www.w3.org/2000/svg" xmlns:xlink="http://www.w3.org/1999/xlink"
	 viewBox="0 0 1024 1024" enable-background="new 0 0 1024 1024" xml:space="preserve">
<path fill="#000000" opacity="1.000000" stroke="none" 
	d="
M497.716614,112.717529 
	C508.878815,101.786819 508.910431,101.725151 522.304260,108.590736 
	C564.701111,130.322983 607.082092,152.086288 649.442322,173.889755 
	C655.772034,177.147736 656.916138,180.709473 653.862549,186.922287 
	C626.869995,241.841339 607.699036,299.611511 591.411255,358.423035 
	C587.860535,371.243805 584.689087,384.170441 581.417175,397.067139 
	C580.421326,400.992462 579.743896,405.087555 575.003906,406.294556 
	C570.169006,407.525726 567.109497,404.947784 564.562927,400.067657 
	C560.937256,405.124969 557.772217,409.518250 554.631958,413.929169 
	C553.096741,416.085541 554.865784,417.740814 555.650085,419.442535 
	C566.085083,442.082611 563.879517,463.382843 548.992371,483.369751 
	C548.297302,484.302917 547.536377,485.193329 546.746765,486.048828 
	C539.369446,494.041321 539.191833,496.082397 545.045837,506.124939 
	C553.687988,505.722748 554.822815,506.451630 558.314636,514.873047 
	C568.815063,540.197205 576.525330,566.335632 579.949463,593.559326 
	C582.668518,615.177795 582.633484,636.738708 575.168396,657.681885 
	C571.460327,668.084717 565.059326,677.169861 560.964600,687.411255 
	C551.430481,711.257263 546.672729,736.185608 543.334900,761.480713 
	C540.783875,780.813660 540.113953,800.272644 539.406250,819.727112 
	C539.284302,823.079651 538.044983,825.606873 534.995605,826.919678 
	C531.640991,828.363892 532.198242,830.437500 533.391541,832.798523 
	C533.973572,832.904480 534.413635,833.127808 534.591614,832.996338 
	C540.666931,828.507935 545.729675,831.436218 550.041992,835.645508 
	C566.170410,851.388489 573.866638,870.571838 570.414429,893.009583 
	C568.098633,908.061401 555.928406,916.640503 538.693115,918.361450 
	C524.066772,919.821899 509.399719,919.194763 494.758606,919.910400 
	C474.797913,920.885864 454.790680,920.897705 434.804291,921.362244 
	C423.148895,921.633118 411.496765,922.112305 399.840302,922.241272 
	C393.617798,922.310181 387.609436,920.988037 382.117126,917.823059 
	C368.090210,909.739807 366.614990,892.186096 379.050201,881.784424 
	C384.336121,877.362976 390.584625,875.129944 397.163727,873.842773 
	C429.339661,867.547607 453.042877,849.963562 468.252808,820.912598 
	C468.926788,819.625305 469.343689,818.076721 470.888733,817.403259 
	C472.249847,817.157959 472.994049,818.180298 473.910065,818.853149 
	C474.829498,819.528442 475.765198,820.181458 477.543182,821.450562 
	C476.757538,813.000244 476.044312,805.369446 475.339355,797.737854 
	C473.794281,781.011536 472.224976,764.287292 470.718536,747.557495 
	C469.107574,729.666382 467.513275,711.773499 465.993286,693.874573 
	C464.501160,676.304199 463.140625,658.722595 461.669678,641.150391 
	C459.824341,619.105896 457.877350,597.069946 456.063721,575.022888 
	C454.413239,554.959045 452.823700,534.889771 451.345856,514.812622 
	C451.032990,510.561890 452.990143,507.603912 457.312561,506.130554 
	C463.223541,504.115570 465.552582,493.382294 461.203979,489.019989 
	C436.258392,463.995758 436.956848,425.713348 462.913361,401.826202 
	C465.038544,399.870453 465.916626,398.171875 465.033722,395.368378 
	C464.390900,393.327332 464.039673,391.123535 463.987457,388.981812 
	C463.868927,384.119446 462.859680,380.990540 456.723206,380.871826 
	C452.577545,380.791656 451.380493,376.327759 450.821320,372.591766 
	C449.099243,361.086792 447.110046,349.604095 445.920471,338.041107 
	C443.858582,317.999390 442.442535,297.886200 442.990814,277.717560 
	C444.045410,238.921921 448.592987,200.734482 463.785095,164.525955 
	C471.857483,145.286346 482.705048,127.846626 497.716614,112.717529 
M486.786041,153.238525 
	C482.375458,161.090973 478.594086,169.237869 475.416260,177.662659 
	C462.851532,210.973312 459.133148,245.796753 458.551025,281.004150 
	C458.146698,305.458954 460.253448,329.849213 463.588715,354.090698 
	C463.953003,356.738525 463.548615,359.824615 465.955994,362.377106 
	C503.229401,349.476685 538.681335,349.277344 569.277283,379.708710 
	C569.940491,377.585785 570.383728,376.345825 570.716248,375.076843 
	C587.404663,311.402069 607.436279,248.887283 635.407654,189.144135 
	C636.954895,185.839417 635.928406,184.510513 633.041931,183.037796 
	C593.890198,163.062378 554.769958,143.024826 515.695068,122.899521 
	C512.837097,121.427536 510.972015,121.708725 508.736816,123.965553 
	C500.237915,132.546616 493.169861,142.170685 486.786041,153.238525 
M513.453613,811.723694 
	C513.786865,811.723816 514.120178,811.729370 514.453308,811.723389 
	C525.055420,811.532715 523.930176,813.429321 524.430664,801.976685 
	C525.340088,781.167419 527.206848,760.497742 530.695374,739.983215 
	C535.406067,712.282349 542.562866,685.388306 556.608887,660.679932 
	C562.718384,649.932678 565.023682,637.942017 565.647705,625.691040 
	C567.137817,596.436768 560.571899,568.497314 551.413452,541.025330 
	C550.013916,536.827148 548.989380,532.413269 545.969604,528.141663 
	C520.961365,546.737732 495.102631,546.202087 468.413879,530.639954 
	C468.413879,532.853943 468.323090,534.165283 468.428101,535.460693 
	C469.395081,547.392517 470.394775,559.321777 471.387268,571.251526 
	C472.462738,584.178223 473.522919,597.106384 474.621521,610.031128 
	C476.170349,628.253235 477.762665,646.471619 479.309814,664.693909 
	C480.772919,681.926025 482.174133,699.163513 483.653107,716.394226 
	C485.174561,734.120056 486.700562,751.845764 488.332214,769.561646 
	C489.490875,782.142212 490.965790,794.695007 492.003601,807.284607 
	C492.322144,811.148560 494.107483,811.920532 497.470520,811.787537 
	C502.462158,811.590332 507.467041,811.728088 513.453613,811.723694 
M473.579498,842.494995 
	C469.707275,847.928223 465.616180,853.185608 460.859528,857.882385 
	C444.008148,874.521423 423.857880,884.833618 400.625793,889.217773 
	C396.831268,889.933899 393.150635,891.051270 389.976807,893.300476 
	C384.923981,896.880981 385.267670,901.808044 390.786865,904.629089 
	C393.626831,906.080627 396.759735,906.723816 399.967590,906.639343 
	C406.624268,906.464233 413.277466,906.149475 419.934479,905.995544 
	C454.899048,905.186707 489.865021,904.437744 524.828613,903.589783 
	C529.483093,903.476990 534.162048,903.169128 538.768738,902.519531 
	C551.404968,900.737793 556.172791,895.132812 555.631104,882.303528 
	C555.161255,871.175903 550.890320,861.325989 544.500549,852.296265 
	C542.157898,848.985840 539.631409,848.316040 535.578613,849.454651 
	C515.619019,855.062195 496.398254,853.301636 478.276154,842.687317 
	C477.009277,841.945312 475.758148,840.022461 473.579498,842.494995 
M460.232056,434.790527 
	C459.095886,440.488220 458.282471,446.081024 459.113281,452.039398 
	C462.512817,476.420471 485.974487,493.853119 509.957153,489.431549 
	C534.807556,484.849945 550.917664,460.545959 545.176147,436.299469 
	C540.666626,417.255798 524.060974,403.256042 504.948242,402.384552 
	C484.428192,401.448853 467.363464,413.560150 460.232056,434.790527 
M518.359802,388.831421 
	C526.095520,391.088959 533.401367,394.268555 539.508240,399.628174 
	C542.475159,402.232117 544.313416,401.533539 546.230408,398.521118 
	C547.743652,396.143219 549.407410,393.811432 551.314148,391.745026 
	C554.364990,388.438721 553.444519,386.291077 550.141479,383.745544 
	C528.838867,367.328491 505.348572,367.461365 480.905121,374.231049 
	C479.517090,374.615448 478.300140,375.288696 478.363190,376.865845 
	C478.545654,381.431000 478.959381,385.971619 480.845276,390.570862 
	C493.221008,386.431152 505.294922,385.267975 518.359802,388.831421 
M483.023804,520.506165 
	C496.836334,527.390625 510.874969,528.981262 525.252869,522.276855 
	C532.210815,519.032410 532.199829,519.017212 529.756897,511.922638 
	C528.891296,509.408966 528.004028,506.901062 527.216919,504.362549 
	C526.486572,502.007172 525.275330,501.276093 522.757690,502.134216 
	C509.079742,506.796570 495.373138,506.812469 481.713318,501.974731 
	C480.183563,501.432953 478.985016,501.255615 477.890320,502.958466 
	C472.894043,510.730438 474.186737,515.871643 483.023804,520.506165 
M501.227112,835.394775 
	C505.156982,835.819519 508.999237,836.823364 513.014832,836.755493 
	C516.136169,836.702698 517.035278,835.271729 516.883606,832.437317 
	C516.743896,829.827209 516.752869,827.340393 513.077148,827.413086 
	C509.278351,827.488220 505.475189,827.493774 501.677032,827.401367 
	C499.128632,827.339417 497.072205,827.768005 496.477295,830.718811 
	C495.812531,834.015991 498.114044,834.589172 501.227112,835.394775 
z"/>
</svg>