<svg xmlns="http://www.w3.org/2000/svg" xmlns:xlink="http://www.w3.org/1999/xlink" width="1920" zoomAndPan="magnify" viewBox="0 0 1440 809.999993" height="1080" preserveAspectRatio="xMidYMid meet" version="1.0"><defs><clipPath id="611dd501dd"><path d="M 0 37 L 1440 37 L 1440 810 L 0 810 Z M 0 37 " clip-rule="nonzero"/></clipPath><clipPath id="a2b8d14234"><path d="M 688.722656 -380.128906 L 2210.957031 455.515625 L 1480.839844 1785.523438 L -41.394531 949.878906 Z M 688.722656 -380.128906 " clip-rule="nonzero"/></clipPath><clipPath id="52095c9f05"><path d="M 1448.726562 37.082031 L 1478.613281 1784.300781 L -41.394531 949.878906 Z M 1448.726562 37.082031 " clip-rule="nonzero"/></clipPath><clipPath id="da8b46741b"><path d="M 0 0 L 1440 0 L 1440 773 L 0 773 Z M 0 0 " clip-rule="nonzero"/></clipPath><clipPath id="d2a90573ad"><path d="M 688.722656 -417.128906 L 2210.957031 418.515625 L 1480.839844 1748.523438 L -41.394531 912.878906 Z M 688.722656 -417.128906 " clip-rule="nonzero"/></clipPath><clipPath id="19eea9788a"><path d="M 1448.726562 0.0820312 L 1478.613281 1747.300781 L -41.394531 912.878906 Z M 1448.726562 0.0820312 " clip-rule="nonzero"/></clipPath><clipPath id="dadc7fcf43"><rect x="0" width="1440" y="0" height="773"/></clipPath></defs><g clip-path="url(#611dd501dd)"><g clip-path="url(#a2b8d14234)"><g clip-path="url(#52095c9f05)"><g transform="matrix(1, 0, 0, 1, 0, 37)"><g clip-path="url(#dadc7fcf43)"><g clip-path="url(#da8b46741b)"><g clip-path="url(#d2a90573ad)"><g clip-path="url(#19eea9788a)"><path fill="#002b79" d="M 688.722656 -417.128906 L 2210.957031 418.515625 L 1480.839844 1748.523438 L -41.394531 912.878906 Z M 688.722656 -417.128906 " fill-opacity="1" fill-rule="nonzero"/></g></g></g></g></g></g></g></g></svg>