<svg xmlns="http://www.w3.org/2000/svg" xmlns:xlink="http://www.w3.org/1999/xlink" width="1920" zoomAndPan="magnify" viewBox="0 0 1440 809.999993" height="1080" preserveAspectRatio="xMidYMid meet" version="1.0"><defs><clipPath id="ccc0d3d785"><path d="M 0 0 L 753 0 L 753 810 L 0 810 Z M 0 0 " clip-rule="nonzero"/></clipPath><clipPath id="54384e79d8"><path d="M 1203.8125 642.964844 L 300.1875 2125.855469 L -995.441406 1336.34375 L -91.820312 -146.550781 Z M 1203.8125 642.964844 " clip-rule="nonzero"/></clipPath><clipPath id="00bda2b0d7"><path d="M 752.660156 1383.324219 L -994.121094 1334.171875 L -91.820312 -146.550781 Z M 752.660156 1383.324219 " clip-rule="nonzero"/></clipPath><clipPath id="7b0d75c778"><path d="M 0 0 L 752.878906 0 L 752.878906 810 L 0 810 Z M 0 0 " clip-rule="nonzero"/></clipPath><clipPath id="9da7cff1ae"><path d="M 1203.8125 642.964844 L 300.1875 2125.855469 L -995.441406 1336.34375 L -91.820312 -146.550781 Z M 1203.8125 642.964844 " clip-rule="nonzero"/></clipPath><clipPath id="51cd511371"><path d="M 752.660156 1383.324219 L -994.121094 1334.171875 L -91.820312 -146.550781 Z M 752.660156 1383.324219 " clip-rule="nonzero"/></clipPath><clipPath id="c09097685f"><rect x="0" width="753" y="0" height="810"/></clipPath></defs><g clip-path="url(#ccc0d3d785)"><g clip-path="url(#54384e79d8)"><g clip-path="url(#00bda2b0d7)"><g transform="matrix(1, 0, 0, 1, 0, 0.000000000000039746)"><g clip-path="url(#c09097685f)"><g clip-path="url(#7b0d75c778)"><g clip-path="url(#9da7cff1ae)"><g clip-path="url(#51cd511371)"><path fill="#eeeeee" d="M 1203.8125 642.964844 L 300.1875 2125.855469 L -995.441406 1336.34375 L -91.820312 -146.550781 Z M 1203.8125 642.964844 " fill-opacity="1" fill-rule="nonzero"/></g></g></g></g></g></g></g></g></svg>