<?xml version="1.0" encoding="UTF-8" standalone="no"?>
<!-- Created with Inkscape (http://www.inkscape.org/) -->

<svg
   width="512"
   height="512"
   viewBox="0 0 135.46666 135.46667"
   version="1.1"
   id="svg1"
   xml:space="preserve"
   xmlns="http://www.w3.org/2000/svg"
   xmlns:svg="http://www.w3.org/2000/svg"><defs
     id="defs1" /><g
     id="layer1"><path
       style="fill:#f8f8f8;fill-opacity:1;stroke-width:1.0848"
       d="m 26.895597,126.68838 c -0.46839,-0.36845 -2.152942,-2.71065 -3.629793,-5.04688 -2.425814,-3.8374 -5.532568,-9.55618 -6.983749,-12.85539 -0.190406,-0.43288 -0.531137,-1.20027 -0.75718,-1.70531 -0.900127,-2.0111 -2.440799,-6.05361 -3.34961,-8.78889 C 9.5532079,90.40021 8.1617809,83.41903 7.7767059,76.2231 7.2023109,65.48932 10.106878,56.44473 15.506603,52.15281 16.995962,50.969 17.63657,50.6791 18.737201,50.69084 c 1.11611,0.0119 1.347001,0.12083 4.125154,1.94607 3.191424,2.09677 4.111435,2.64681 6.502903,3.8879 2.771022,1.43805 5.346034,2.54445 7.146485,3.07059 4.112716,1.20186 6.118021,1.59126 9.772719,1.89771 1.945457,0.16313 2.951493,0.17007 2.951493,0.0204 0,-0.21919 -1.28109,-2.05764 -2.159826,-3.0995 -0.486813,-0.57718 -1.507681,-1.98549 -2.268597,-3.12958 -0.838183,-1.26027 -1.540452,-2.17563 -1.781731,-2.32236 -0.219036,-0.1332 -0.861102,-0.40331 -1.426813,-0.60024 -1.08874,-0.379 -1.360013,-0.57617 -1.236303,-0.89855 0.109303,-0.28484 2.02958,-0.8301 2.194705,-0.52158 0.07722,0.14429 -1.226759,0.84783 -1.120097,0.84783 0.106658,0 0.296431,0.0541 0.42171,0.12009 0.311952,0.16447 1.895098,0.61408 2.85133,0.80977 0.878178,0.17972 1.234744,0.38192 0.673499,0.38192 -0.495867,0 -0.870265,0.22199 -0.870265,0.516 0,0.6597 1.109759,2.32398 3.056041,4.58308 0.706831,0.82043 1.461676,1.8414 1.677432,2.26881 0.215758,0.42741 0.489832,0.81455 0.609055,0.8603 0.398577,0.15295 1.769381,-1.53929 2.786751,-3.44022 1.432183,-2.67598 1.336301,-2.55904 2.692859,-3.28419 1.6376,-0.87537 1.804416,-0.98549 2.198621,-1.45135 0.225015,-0.26593 0.213459,-0.2929 -0.4491,-1.04814 -0.374031,-0.42635 -1.311956,-1.40191 -2.084274,-2.16789 -1.67937,-1.66559 -2.384261,-2.06631 -3.826721,-2.1754 -1.211745,-0.0916 -1.525748,0.0429 -1.441389,0.61769 0.04889,0.33311 0.0085,0.42206 -0.218459,0.48142 -0.153134,0.0401 -0.278428,0.15527 -0.278428,0.25605 0,0.10079 -0.07379,0.3041 -0.163972,0.45181 -0.13974,0.22888 -0.1258,0.29686 0.09434,0.46003 0.142067,0.1053 0.485206,0.25256 0.762533,0.32723 0.277327,0.0747 0.69236,0.25005 0.922296,0.38973 0.229934,0.13967 0.506608,0.29471 0.61483,0.34455 0.10822,0.0498 0.467638,0.27535 0.798705,0.50116 0.331067,0.2258 0.788547,0.48785 1.016624,0.58232 0.537229,0.22253 0.529059,0.4023 -0.01828,0.4023 -0.238134,0 -0.591853,0.0738 -0.786041,0.16397 -0.309561,0.14376 -0.3532,0.2398 -0.354097,0.77932 -5.63e-4,0.33844 -0.06005,0.65183 -0.1322,0.69642 -0.219369,0.13558 -0.146893,0.51738 0.131177,0.69104 0.371438,0.23196 0.35506,0.81751 -0.02287,0.81751 h -0.285221 l 0.307601,0.32742 c 0.169181,0.18009 0.267926,0.3671 0.219435,0.41559 -0.175843,0.17585 -0.799953,-0.30335 -1.583254,-1.21564 -0.947221,-1.1032 -1.082755,-1.20198 -1.888849,-1.37663 -0.339119,-0.0735 -0.882215,-0.19247 -1.206879,-0.26445 -0.324664,-0.072 -0.782145,-0.16357 -1.016625,-0.20353 -0.469186,-0.08 -0.543325,-0.2278 -0.208273,-0.41531 0.176739,-0.0989 0.02191,-0.23684 -0.817115,-0.72799 -0.569345,-0.33328 -1.116024,-0.60597 -1.214845,-0.60597 -0.09883,0 -0.353781,-0.18638 -0.566579,-0.41418 -0.372125,-0.39836 -0.409333,-0.40905 -0.973943,-0.27985 -0.757228,0.17328 -0.898175,-0.0328 -0.158527,-0.23184 0.806362,-0.21693 1.226262,-0.4604 1.822713,-1.05685 0.633802,-0.6338 2.033642,-1.55907 2.358725,-1.55907 0.128852,0 0.270759,-0.059 0.315348,-0.13117 0.04458,-0.0721 0.196449,-0.13118 0.337466,-0.13118 0.141015,0 0.358894,-0.0527 0.484173,-0.11706 0.391744,-0.20132 1.778188,-0.40765 2.739179,-0.40765 1.151304,0 2.331394,0.37255 3.31608,1.04687 0.858394,0.58783 1.283614,1.02857 2.280535,2.36374 0.884163,1.18416 1.319702,1.70531 1.425179,1.70531 0.04321,0 0.118353,-0.26536 0.166988,-0.58968 0.08373,-0.5583 0.602838,-1.37798 0.872694,-1.37798 0.06652,0 0.381532,-0.12249 0.700027,-0.2722 0.856291,-0.40251 1.799006,-0.38109 2.782934,0.0632 0.443802,0.2004 0.968146,0.53266 1.165207,0.73835 0.321035,0.33509 0.349851,0.43955 0.2771,1.00452 -0.04466,0.3468 -0.09677,0.76984 -0.115789,0.9401 -0.02808,0.25123 0.09645,0.38409 0.660871,0.70517 l 0.695465,0.39562 0.300131,-0.28196 c 0.475558,-0.44676 2.254948,-3.15566 3.351811,-5.10271 1.564922,-2.77791 2.477013,-5.03908 3.873386,-9.60254 0.688844,-2.2512 1.301285,-6.6558 1.513895,-10.88773 0.272555,-5.42511 0.428341,-6.1263 1.522058,-6.85075 2.486486,-1.647 7.576267,-2.02349 12.053258,-0.89159 3.68378,0.93135 8.18106,3.05707 11.5704,5.46898 4.788,3.40719 10.60704,9.12379 15.26636,14.99757 6.52511,8.22592 12.72303,19.21141 15.83798,28.07197 1.62984,4.63611 1.60209,5.30547 -0.19668,4.74562 -1.63914,-0.51016 -3.11138,-1.56033 -3.96349,-2.82722 -0.18806,-0.27961 -0.81417,-1.39743 -1.39134,-2.48405 l -1.04943,-1.97568 -1.04942,-0.2256 c -2.97464,-0.63948 -3.55918,-1.15234 -6.15316,-5.39873 -0.84552,-1.38412 -0.87866,-1.41029 -1.78599,-1.41029 -1.92892,0 -2.98404,-0.46901 -4.49529,-1.99818 l -1.15319,-1.16687 -0.47271,0.15601 c -0.74508,0.24589 -2.00069,0.0873 -2.81736,-0.35591 -0.38505,-0.20895 -1.69234,-1.19647 -2.90512,-2.19448 -1.21277,-0.99802 -2.23547,-1.78416 -2.27264,-1.74699 -0.0372,0.0372 0.0915,0.30804 0.28604,0.60193 0.41997,0.63463 0.5493,1.54227 0.27004,1.89531 -0.22433,0.28359 -0.94498,0.47281 -1.81741,0.47719 -0.3427,0.002 -0.6231,0.0537 -0.6231,0.11545 0,0.0618 0.19795,0.37168 0.43989,0.68868 1.02718,1.34587 1.26525,2.30061 0.67077,2.69013 -0.26989,0.17683 -0.5533,0.20513 -1.50855,0.15067 -0.64693,-0.0369 -1.17623,-0.0478 -1.17623,-0.0242 0,0.0236 0.25567,0.4146 0.56816,0.86898 0.31249,0.45438 0.64384,1.01684 0.73633,1.24992 0.33363,0.84072 -0.10684,1.34712 -1.17174,1.34712 -0.28094,0 -0.5427,0.0516 -0.58168,0.11469 -0.039,0.0631 0.10402,0.43202 0.31782,0.81986 0.43591,0.79079 0.52354,1.61101 0.18597,1.74055 -0.33441,0.12832 -1.23004,0.0918 -1.77859,-0.0726 -0.27939,-0.0837 -0.54516,-0.11502 -0.59059,-0.0696 -0.0454,0.0455 0.0434,0.37574 0.1976,0.73402 0.31082,0.72251 0.3637,1.45066 0.12282,1.69154 -0.22589,0.22589 -0.65682,0.19523 -1.56735,-0.1115 -0.43903,-0.1479 -0.83204,-0.2351 -0.87335,-0.19379 -0.0413,0.0413 0.0249,0.35418 0.14713,0.69524 0.67199,1.87489 -0.17924,2.38279 -2.01018,1.1994 l -0.81959,-0.52973 0.0829,0.36876 c 0.0456,0.20281 0.11994,0.78616 0.16517,1.29634 0.0916,1.03333 -0.0596,1.49919 -0.48665,1.49919 -0.39394,0 -1.26663,-0.4797 -2.19838,-1.2084 -0.456975,-0.35739 -0.863004,-0.61766 -0.902286,-0.57838 -0.03928,0.0393 -0.0048,0.33594 0.07658,0.65925 0.237518,0.94326 0.188155,1.59094 -0.151333,1.98562 -0.279658,0.32512 -0.334102,0.33866 -0.827622,0.20577 -0.784543,-0.21126 -1.70833,-0.87916 -2.395368,-1.73186 -0.335363,-0.41623 -0.654368,-0.76087 -0.708899,-0.76587 -0.05453,-0.005 -0.06199,0.47791 -0.01659,1.07313 0.09994,1.31013 -0.131618,2.06685 -0.631833,2.06481 -0.518147,-0.002 -1.623103,-0.74204 -2.341452,-1.56794 -0.680529,-0.78242 -1.023228,-1.00873 -0.851738,-0.56246 0.08672,0.22567 0.3512,1.45699 0.521894,2.42972 0.161765,0.92184 1.916458,2.58767 6.698307,6.35908 4.23695,3.34166 4.75421,3.80977 6.81697,6.16925 0.7745,0.88591 2.15832,2.28142 3.07516,3.10112 2.07171,1.85224 2.66975,2.51745 3.44198,3.82858 1.66007,2.81852 1.75131,4.33791 0.30259,5.03921 -0.97967,0.47425 -0.99472,0.46836 -4.19192,-1.64009 -3.96705,-2.61614 -4.83717,-3.28016 -6.06242,-4.62643 -3.345855,-3.67634 -4.636694,-4.90381 -7.776803,-7.39501 -2.536112,-2.01202 -2.879703,-2.26365 -2.968964,-2.17439 -0.09666,0.0967 3.677427,6.03172 4.797069,7.54378 0.464351,0.6271 1.443628,1.74469 2.17617,2.48353 1.315808,1.32712 1.356308,1.35497 3.353408,2.30636 1.11182,0.52966 2.46422,1.14929 3.00533,1.37697 5.57204,2.34452 6.51507,2.82822 7.05765,3.62007 0.58075,0.84754 0.22764,2.06426 -0.81347,2.80315 -0.9562,0.67861 -1.6996,0.88102 -3.22709,0.87866 -1.64963,-0.003 -1.94585,-0.089 -6.06698,-1.77059 -5.985732,-2.4424 -6.550597,-2.74718 -8.237171,-4.44446 -1.844877,-1.85659 -3.091394,-3.68951 -5.763006,-8.47412 -1.846299,-3.30654 -2.371716,-4.11743 -3.246169,-5.00986 -1.210187,-1.23507 -2.163955,-1.80734 -7.77573,-4.66547 -4.624926,-2.35552 -5.23696,-2.71149 -5.806901,-3.37733 -0.457606,-0.53461 -0.883149,-1.65006 -0.883149,-2.31494 0,-0.21434 -0.07945,-0.49837 -0.176553,-0.63117 -0.168838,-0.2309 -0.217552,-0.22255 -1.115008,0.19111 -0.51615,0.23791 -0.938456,0.51229 -0.938456,0.60972 0,0.0974 0.776909,1.75629 1.726463,3.68635 1.683483,3.42182 1.727908,3.5343 1.784441,4.51823 0.05433,0.94557 0.03688,1.03014 -0.277548,1.34457 -0.184541,0.18453 -0.411998,0.33497 -0.505461,0.33429 -0.168838,-0.001 -1.19286,-0.57776 -1.797877,-1.01223 l -0.316168,-0.22705 0.09402,0.3907 c 0.517846,2.15189 0.586445,3.07845 0.281885,3.80736 -0.34292,0.82072 -0.808537,0.7758 -2.053913,-0.19818 -0.460853,-0.36043 -0.876843,-0.65649 -0.924423,-0.65792 -0.04758,-0.001 -0.004,0.3073 0.09683,0.68607 0.217417,0.81671 0.244065,2.64869 0.04675,3.21468 -0.08519,0.24438 -0.287938,0.46213 -0.519657,0.55811 -0.326453,0.13522 -0.441599,0.11929 -0.817604,-0.11309 -0.240699,-0.14876 -0.630396,-0.51034 -0.865992,-0.80351 -0.434266,-0.54038 -0.704339,-0.60603 -0.58291,-0.14168 0.12606,0.48205 -0.226225,2.53025 -0.501753,2.91719 -0.500837,0.70336 -1.045651,0.434 -2.304501,-1.13937 l -0.419423,-0.52421 -0.0076,0.78706 c -0.0096,0.99201 -0.196571,1.67261 -0.582752,2.12158 l -0.301966,0.3511 -0.446151,-0.27606 c -0.245384,-0.15183 -0.644777,-0.60418 -0.88754,-1.00521 -0.443034,-0.73188 -0.672989,-0.83357 -0.674352,-0.29823 -0.0014,0.55419 -0.281218,1.28903 -0.646486,1.69784 -0.359828,0.40272 -0.376717,0.40734 -0.70426,0.19272 -0.184575,-0.12093 -0.530575,-0.54588 -0.768889,-0.94431 -0.238315,-0.39844 -0.470518,-0.72443 -0.516008,-0.72443 -0.04549,0 -0.185046,0.26797 -0.310123,0.59548 -0.440569,1.15361 -1.113615,1.63786 -1.67927,1.20821 -0.118733,-0.0902 -0.397293,-0.53291 -0.619021,-0.98383 -0.221728,-0.45092 -0.445873,-0.81986 -0.4981,-0.81986 -0.05222,0 -0.231862,0.25807 -0.39919,0.57349 -0.752428,1.41834 -1.734931,0.90172 -2.400118,-1.26204 -0.149691,-0.48692 -0.31861,-0.85661 -0.375374,-0.82153 -0.05676,0.0351 -0.226948,0.32703 -0.378185,0.64877 -0.357473,0.7605 -1.116177,1.5172 -1.521205,1.5172 -0.388784,0 -1.02661,-0.73873 -1.223921,-1.41754 -0.07747,-0.26649 -0.237576,-0.82395 -0.355804,-1.2388 -0.234118,-0.82148 -0.383281,-0.94146 -0.515501,-0.41465 -0.112928,0.44994 -1.267436,1.59324 -1.724766,1.70803 -0.300167,0.0753 -0.424562,0.0208 -0.728612,-0.31951 -0.201656,-0.22569 -0.461425,-0.73637 -0.577262,-1.13483 -0.115839,-0.39847 -0.237805,-0.72449 -0.271037,-0.72449 -0.03324,0 -0.02095,1.4905 0.02729,3.31223 0.112742,4.25743 0.05167,4.61197 -0.961108,5.57939 l -0.725524,0.69304 0.208053,1.27462 c 0.355466,2.17777 0.122097,3.43731 -0.93735,5.05911 l -0.586991,0.89856 0.819803,2.03652 c 1.514904,3.76326 1.620348,4.60793 0.847836,6.79173 -0.25522,0.72147 -0.494405,1.45935 -0.531521,1.63971 -0.04695,0.22817 0.17898,0.84678 0.74258,2.03326 1.319178,2.77706 1.590109,3.54596 1.663989,4.72238 0.10797,1.71932 -0.385597,3.51244 -1.090488,3.96172 -0.23853,0.15204 -0.319603,0.13953 -0.61832,-0.0954 z m 0.753416,-0.55585 c 0.388688,-0.5932 0.630091,-1.93043 0.572871,-3.17334 -0.0646,-1.4033 -0.107297,-1.50908 -2.888353,-7.15509 -3.608458,-7.32578 -5.331707,-11.41769 -6.905436,-16.39718 -1.139395,-3.6052 -2.052221,-7.72465 -2.369001,-10.69097 -0.35947,-3.36605 -0.404563,-3.92135 -0.404563,-4.98205 0,-0.72205 0.04759,-1.10377 0.131177,-1.05211 0.07215,0.0446 0.131179,0.52376 0.131179,1.06482 0,1.06893 0.136788,2.44603 0.54573,5.49405 0.580196,4.32447 1.744951,8.81227 3.483946,13.42368 0.399076,1.05825 0.801461,2.13069 0.894189,2.38321 0.323377,0.88064 1.354241,3.22994 2.388734,5.44386 2.099982,4.49418 2.435461,5.18152 2.529079,5.18152 0.29437,0 1.046048,-2.45556 1.046048,-3.4172 0,-1.12019 -0.67809,-3.20209 -2.027303,-6.22434 -1.772966,-3.97146 -3.50707,-9.29498 -4.187579,-12.8554 -0.429991,-2.24972 -0.620747,-5.05034 -0.34399,-5.05034 0.07215,0 0.131177,0.3204 0.131177,0.71199 0,1.65428 0.694299,5.61104 1.371231,7.81455 0.09974,0.32466 0.311441,1.03302 0.470449,1.57413 0.159007,0.54111 0.394422,1.24946 0.523145,1.57412 0.128723,0.32467 0.627228,1.60753 1.10779,2.85079 0.480562,1.24327 0.924992,2.29216 0.987622,2.33087 0.157991,0.0977 0.703866,-0.64825 1.104805,-1.50963 0.296694,-0.63741 0.334989,-0.88697 0.331989,-2.16347 -0.0034,-1.46185 -0.09271,-1.95765 -0.720444,-4.00092 -0.88691,-2.88692 -1.419298,-5.54142 -1.569069,-7.82345 -0.102796,-1.56628 0.119844,-2.03048 0.258348,-0.53866 0.170565,1.83714 0.590496,4.37642 0.9707,5.86973 0.426122,1.67367 0.897944,3.01708 1.059632,3.01708 0.05805,0 0.343427,-0.22404 0.634179,-0.49787 0.887036,-0.83541 0.875064,-0.64875 0.628564,-9.79955 -0.120497,-4.47316 -0.276544,-8.66427 -0.346773,-9.3136 -0.494022,-4.56769 -2.155858,-10.36922 -4.011181,-14.00319 -0.107395,-0.21036 -0.128698,-0.36074 -0.0511,-0.36074 0.305259,0 1.694356,3.1907 2.646084,6.07795 1.117877,3.39129 1.866387,7.59337 2.013402,11.30306 0.111726,2.81923 0.42702,6.3929 0.642823,7.28601 0.09663,0.39993 0.298602,1.00499 0.448817,1.34457 0.219555,0.49634 0.336902,0.61743 0.598372,0.61743 0.687223,0 1.546326,-1.16233 2.13304,-2.88591 0.216687,-0.63655 0.244595,-1.13063 0.237102,-4.19767 -0.0072,-2.91485 -0.05766,-3.81514 -0.312974,-5.57505 -0.438066,-3.01966 -0.448755,-3.12827 -0.298751,-3.03557 0.07266,0.0449 0.160695,0.27405 0.195634,0.50919 0.03494,0.23515 0.160741,0.94933 0.279563,1.58707 0.56841,3.05075 0.768574,7.55286 0.450775,10.13884 -0.17659,1.43695 -0.0392,2.42377 0.534559,3.83974 0.472489,1.16604 0.694084,1.27 1.285636,0.60319 0.256019,-0.28859 0.597869,-0.81986 0.759667,-1.1806 0.545707,-1.21667 0.620659,-2.16176 0.571206,-7.20237 -0.03751,-3.8232 -0.01737,-4.5765 0.106973,-4.00092 0.08881,0.41116 0.201398,2.91377 0.267938,5.95619 l 0.114759,5.2471 0.430516,1.08283 c 0.536716,1.34995 0.832737,1.5673 1.327475,0.97468 0.470967,-0.56414 0.772001,-1.47517 0.988952,-2.99289 0.296732,-2.07584 0.269367,-2.65659 -0.283515,-6.01702 -0.106831,-0.64933 -0.228012,-1.3872 -0.269288,-1.63972 -0.153286,-0.93776 0.184391,-0.17866 0.466828,1.04942 0.232992,1.01309 0.310178,1.93392 0.412663,4.92311 0.132223,3.85655 0.272217,4.79601 0.792164,5.31596 0.373311,0.37331 0.604848,0.3157 0.974165,-0.24237 0.497527,-0.75182 0.635897,-1.77879 0.542731,-4.02813 -0.07705,-1.86017 -0.486968,-4.71459 -0.748567,-5.21252 -0.151534,-0.28843 -0.153108,-0.4937 -0.0038,-0.4937 0.06374,0 0.147427,0.13282 0.18598,0.29515 0.03855,0.16233 0.194,0.76739 0.34544,1.34457 0.308639,1.17631 0.448918,2.13445 0.66259,4.52562 0.120945,1.35347 0.215358,1.78822 0.54082,2.49033 0.684985,1.47771 1.030388,1.65457 1.436831,0.73574 0.412677,-0.93293 0.447485,-1.91348 0.133148,-3.75078 -0.569039,-3.32603 -0.828375,-4.66365 -0.957572,-4.93901 -0.07282,-0.15522 -0.102916,-0.36182 -0.06686,-0.45912 0.04583,-0.12367 0.09347,-0.0979 0.158315,0.0855 0.05102,0.14429 0.141611,0.38041 0.201322,0.52471 0.138342,0.33431 0.587179,2.34685 0.789888,3.54179 0.216822,1.27813 0.617059,2.62857 1.009835,3.40731 0.445162,0.88258 1.092484,1.7742 1.288092,1.7742 0.318732,0 0.518409,-0.83673 0.516518,-2.16443 -0.0021,-1.46661 -0.176882,-2.24136 -1.25004,-5.54062 -0.707032,-2.17366 -0.696658,-2.13326 -0.547745,-2.13326 0.128608,0 0.259221,0.33867 1.163452,3.01667 0.869453,2.57502 1.272239,3.43329 2.185611,4.65721 0.801648,1.07421 1.14597,1.2124 1.468203,0.58927 0.153721,-0.29726 0.213972,-0.78107 0.217971,-1.75029 0.0066,-1.6029 -0.21921,-2.35189 -1.624679,-5.38851 -0.503271,-1.08735 -0.983062,-2.15409 -1.066206,-2.37053 -0.08314,-0.21645 -0.180681,-0.42305 -0.216755,-0.45913 -0.147853,-0.14785 -0.393252,-0.66345 -0.38936,-0.81807 0.008,-0.32089 0.414748,0.37575 1.39647,2.3922 2.127272,4.36941 2.542917,5.08666 3.578641,6.17543 0.568641,0.59777 0.884372,0.63048 1.157551,0.11993 0.261141,-0.48806 0.124126,-2.7372 -0.227677,-3.7374 -0.358561,-1.01941 -3.381981,-7.10925 -3.679141,-7.4106 -0.153428,-0.15559 -0.406918,-0.68715 -0.353271,-0.74079 0.05051,-0.0505 1.402691,1.95801 1.402691,2.08353 0,0.14166 2.318429,4.18549 2.68933,4.69076 0.561079,0.76435 1.728466,1.87099 2.268007,2.15 0.399045,0.20635 0.428345,0.20353 0.699272,-0.0674 0.258127,-0.25813 0.27602,-0.37552 0.205286,-1.34679 -0.09312,-1.27863 -0.445593,-2.40917 -1.190591,-3.81874 -0.72632,-1.37423 -2.414572,-3.99979 -3.184722,-4.95286 -0.335633,-0.41535 -0.576458,-0.78897 -0.535166,-0.83026 0.118946,-0.11895 1.465163,1.57782 2.558849,3.22516 1.506451,2.26906 1.959544,2.83216 2.837163,3.52599 1.085256,0.85798 1.329493,0.97674 1.652847,0.80369 0.696844,-0.37294 0.417145,-1.39573 -1.397913,-5.11182 -2.320432,-4.75078 -2.389647,-5.04886 -1.486442,-6.40142 0.28859,-0.43217 0.52471,-0.83312 0.52471,-0.891 0,-0.0579 -0.418874,-0.88764 -0.93083,-1.84389 -1.076773,-2.01128 -1.658054,-2.66674 -3.106691,-3.50318 -1.205458,-0.69603 -1.415224,-0.91004 -1.931041,-1.97006 L 49.170352,61.9558 48.383288,61.9236 C 42.274994,61.67352 37.665029,60.71066 32.839124,58.67698 30.188149,57.55984 26.143819,55.29293 22.541347,52.90494 c -2.694053,-1.78583 -2.565648,-1.71963 -3.553758,-1.83227 -0.935326,-0.10662 -1.327819,0.0244 -2.571876,0.85859 -2.653221,1.77906 -5.131321,5.43744 -6.5727591,9.70325 -2.030602,6.0094 -2.30643,13.88941 -0.796423,22.75266 1.9766041,11.60202 6.5487831,23.70415 13.1330961,34.76203 1.80387,3.02947 3.997366,6.25894 4.788957,7.05073 0.303699,0.30378 0.446538,0.28964 0.680429,-0.0674 z M 23.944283,87.273 c 0.0027,-0.21644 0.03208,-0.28911 0.06533,-0.16147 0.03326,0.12763 0.03107,0.30472 -0.0049,0.39353 -0.03593,0.0888 -0.06315,-0.0156 -0.06046,-0.23206 z m 73.368207,14.99329 c 0.65741,-0.34182 1.42019,-1.02289 1.14561,-1.02289 -0.0805,0 -0.1818,0.0575 -0.22517,0.12763 -0.15128,0.24476 -1.80217,0.65943 -2.60678,0.65477 -0.95237,-0.006 -1.85334,-0.2123 -3.32967,-0.76421 -1.63614,-0.61164 -6.450771,-2.6979 -8.287173,-3.59097 -1.468493,-0.71415 -1.739004,-0.90286 -2.754926,-1.9218 -1.708572,-1.71365 -3.057762,-3.79611 -6.04375,-9.32847 -2.492657,-4.61834 -3.877065,-6.65696 -6.781681,-9.98642 -2.241164,-2.56897 -4.201433,-4.0623 -6.869994,-5.23354 -1.14283,-0.50159 -1.520321,-0.57372 -2.416512,-0.46175 -1.352088,0.16894 -1.793839,0.90902 -1.497957,2.50959 0.185162,1.00164 0.523907,1.64572 1.13268,2.15366 0.271624,0.22663 2.223949,1.29108 4.338501,2.36544 6.761308,3.43529 7.364164,3.79749 8.755312,5.26022 1.128107,1.18616 1.798015,2.18802 3.408911,5.0981 1.784279,3.22331 2.587427,4.52585 3.826571,6.20593 1.789693,2.42653 3.087639,3.56725 5.114018,4.49456 2.409215,1.10251 8.44654,3.52228 9.41903,3.77517 0.1443,0.0376 0.88217,0.0542 1.63972,0.0371 1.19164,-0.0269 1.46581,-0.0771 2.03326,-0.37214 z M 59.316652,75.40616 c -1.234468,-0.67041 -1.533857,-2.68254 -0.507845,-3.41312 1.161635,-0.82716 2.757827,0.40911 2.757827,2.13597 0,1.21583 -1.155339,1.87163 -2.249982,1.27715 z M 60.56484,75.2039 c 0.576251,-0.57625 0.415177,-1.68749 -0.362203,-2.49881 -0.608198,-0.63475 -1.071637,-0.75001 -1.421387,-0.35352 -0.565792,0.6414 -0.353946,1.87215 0.446768,2.59554 0.538983,0.48694 1.015195,0.57842 1.336822,0.25679 z m -1.527667,-0.82213 c -0.423082,-0.4416 -0.453921,-0.81911 -0.09355,-1.14524 0.558148,-0.50512 1.227416,0.25173 0.952441,1.07707 -0.164487,0.49371 -0.430929,0.51486 -0.858886,0.0682 z m 0.627387,-0.4998 c 0,-0.29427 -0.06015,-0.3826 -0.260557,-0.3826 -0.309217,0 -0.419961,0.38912 -0.189707,0.66656 0.23794,0.2867 0.450264,0.1528 0.450264,-0.28396 z m 1.624199,-0.21863 c 0.0085,-0.12626 -0.04351,-0.22956 -0.115657,-0.22956 -0.07215,0 -0.124194,0.28039 -0.115658,0.62309 0.01386,0.55619 0.02627,0.58084 0.115658,0.22956 0.05508,-0.21644 0.107124,-0.49683 0.115657,-0.62309 z m -0.246835,-0.57792 c 0,-0.15401 -0.665803,-0.96341 -0.792494,-0.96341 -0.142731,0 0.546412,1.03696 0.694112,1.04444 0.05411,0.003 0.09838,-0.0337 0.09838,-0.081 z m 36.626656,28.21386 c 0.86498,-0.43759 1.28362,-0.83726 1.28362,-1.22546 0,-0.89907 -0.20678,-1.01407 -7.73947,-4.30444 -2.0562,-0.89818 -3.945157,-1.78688 -4.197672,-1.9749 -1.446958,-1.07737 -3.543591,-3.44687 -5.074045,-5.73441 -1.586346,-2.37109 -3.898982,-6.18546 -4.215211,-6.95241 -0.300914,-0.7298 -0.328458,-0.98272 -0.378599,-3.4762 -0.0568,-2.82452 0.01503,-3.28873 0.523999,-3.38675 0.324881,-0.0626 0.536447,0.53254 0.865749,2.43524 0.293233,1.6943 0.543958,2.47969 0.989309,3.09897 0.148942,0.20712 1.185767,1.15084 2.304055,2.09717 2.518793,2.13147 5.541835,5.12143 6.862725,6.78762 0.54917,0.69275 1.38538,1.62145 1.85824,2.06378 0.76357,0.71429 3.68349,2.945 6.55324,5.00646 1.4689,1.05515 2.25293,1.27933 2.83264,0.80991 0.40037,-0.3242 0.2987,-0.81134 -0.51511,-2.46781 -0.82925,-1.6879 -1.55461,-2.64855 -2.90865,-3.85211 -0.60843,-0.5408 -1.87361,-1.77568 -2.81153,-2.74417 -3.92281,-4.05066 -4.7916,-4.8608 -7.345934,-6.84993 -3.537427,-2.75469 -4.211403,-3.31579 -5.757607,-4.79328 l -1.325975,-1.26704 -0.06559,1.69494 c -0.06525,1.68629 -0.06607,1.68992 -0.160377,0.71111 -0.05214,-0.54111 -0.131216,-1.5151 -0.175737,-2.16443 -0.04452,-0.64932 -0.15069,-1.59323 -0.23593,-2.09757 -0.168236,-0.9954 -0.352752,-1.16721 -0.81574,-0.75956 -0.28655,0.2523 -0.488884,0.37562 -1.53676,0.93663 -0.83058,0.44467 -1.142221,0.56501 -1.141128,0.44064 0.0013,-0.14421 0.776372,-0.55339 1.04829,-0.55339 0.132436,0 0.260469,-0.0443 0.284518,-0.0984 0.05652,-0.12715 0.856383,-0.68868 0.980996,-0.68868 0.167074,0 0.702448,-0.56395 0.702448,-0.73995 0,-0.0959 -0.356078,0.0779 -0.819859,0.40004 -1.343742,0.93347 -3.116093,1.69734 -5.607835,2.41694 -1.954822,0.56454 -2.898268,0.71627 -3.361757,0.54064 -0.527703,-0.19995 -0.939264,-0.61818 -1.03435,-1.05111 -0.151581,-0.69015 -1.536359,-1.76732 -3.681025,-2.86336 -2.008739,-1.02657 -3.509243,-1.24636 -4.37395,-0.6407 -0.265687,0.18609 -0.249064,0.1985 0.363083,0.271 1.325133,0.15694 3.79727,1.34733 5.556525,2.67558 2.349445,1.77384 6.543427,6.7762 8.392249,10.00983 0.185626,0.32466 1.027147,1.87943 1.870044,3.45505 1.804103,3.37238 3.469615,6.16668 4.456434,7.47675 0.840755,1.11616 2.32755,2.57983 2.943676,2.8979 0.546906,0.28233 4.076945,1.8677 5.922141,2.65968 0.75754,0.32515 1.73154,0.75319 2.16442,0.95119 0.97282,0.44499 2.62151,1.02341 3.14826,1.10452 0.81823,0.12599 2.93615,-0.0344 3.37318,-0.25555 z M 73.897313,79.7303 c 0,-0.0721 0.05554,-0.13118 0.123436,-0.13118 0.06789,0 0.159918,0.059 0.204508,0.13118 0.04458,0.0722 -0.01095,0.13118 -0.123436,0.13118 -0.112479,0 -0.204508,-0.059 -0.204508,-0.13118 z M 72.530637,79.07419 C 71.670495,78.51548 69.43728,76.51074 69.43728,76.2973 c 0,-0.0747 0.416668,0.2392 0.925927,0.69756 1.448954,1.30411 2.203991,1.89271 2.827089,2.2039 0.316712,0.15817 0.575841,0.31296 0.575841,0.34397 0,0.18211 -0.561816,-0.031 -1.2355,-0.46854 z m -2.699825,-4.06628 c -0.149313,-0.0965 -0.09395,-0.12764 0.229561,-0.12917 0.23448,-10e-4 0.426328,0.057 0.426328,0.12917 0,0.16662 -0.398061,0.16662 -0.655889,0 z m 2.336598,-0.61432 c 0.09469,-0.0379 0.207836,-0.0332 0.251424,0.0103 0.04358,0.0436 -0.03389,0.0746 -0.17217,0.0689 -0.152814,-0.006 -0.183899,-0.0374 -0.07925,-0.0793 z m 0.680484,-0.17274 c 0,-0.0721 0.121544,-0.13118 0.270097,-0.13118 0.148552,0 0.233614,0.059 0.189024,0.13118 -0.04458,0.0721 -0.166133,0.13117 -0.270097,0.13117 -0.103968,0 -0.189024,-0.059 -0.189024,-0.13117 z m 0.656004,-0.21534 c 1.43e-4,-0.13806 1.590581,-0.73006 1.69115,-0.62949 0.109748,0.10974 -0.277764,0.31584 -0.598122,0.31811 -0.156319,0.001 -0.303895,0.0567 -0.327943,0.12348 -0.05753,0.15984 -0.765237,0.33364 -0.765085,0.1879 z M 99.61461,97.50147 c 0.55981,-0.28948 0.47936,-0.4156 -0.30673,-0.48079 -0.82362,-0.0683 -1.48135,-0.46664 -4.94689,-2.99596 -3.21781,-2.34851 -3.92377,-2.97609 -5.6071,-4.9846 -2.332148,-2.78265 -4.195594,-4.59475 -7.846057,-7.62984 -1.18925,-0.98878 -1.922773,-1.92028 -2.165104,-2.74947 -0.07057,-0.24148 -0.247627,-1.17642 -0.393454,-2.07764 -0.460237,-2.84431 -0.721676,-2.23923 -0.615006,1.42338 0.03707,1.27273 0.118636,2.44197 0.181264,2.59832 0.06263,0.15636 1.117377,1.06396 2.343885,2.01691 4.340712,3.37256 6.015525,4.85893 7.975352,7.078 2.38108,2.69604 3.27079,3.43371 7.72283,6.40302 2.47282,1.64927 2.87497,1.80308 3.65701,1.39867 z M 70.242649,74.14628 c 2.374942,-0.44554 6.008733,-1.90045 7.28433,-2.91652 0.806369,-0.64231 0.927264,-0.93421 0.638733,-1.54225 -0.235005,-0.49524 -0.40334,-0.60309 -0.295067,-0.18905 0.117046,0.44759 -0.23647,0.29444 -0.475008,-0.20578 -0.250799,-0.52593 -0.156092,-0.90049 0.12908,-0.5105 0.256316,0.35054 0.218265,0.0591 -0.133251,-1.02066 -0.170496,-0.52371 -0.380597,-1.24735 -0.466891,-1.60809 -0.444264,-1.85719 -1.876753,-1.92739 -5.233868,-0.2565 -2.145665,1.06793 -4.53862,2.57529 -4.98088,3.13753 -0.375435,0.47729 -0.36588,0.8456 0.0362,1.39563 0.709135,0.97007 0.850299,1.24687 0.927565,1.81882 0.15743,1.16535 0.379541,1.76393 0.718099,1.93524 0.417039,0.21103 0.537324,0.20857 1.850953,-0.0379 z m 0.645782,-1.68101 c -0.203761,-0.38073 -0.08343,-1.26151 0.172345,-1.26151 0.260213,0 0.50008,0.56099 0.452555,1.05842 -0.05246,0.54914 -0.382327,0.65634 -0.6249,0.20309 z m 0.516511,-0.2526 c 0,-0.16658 -0.08433,-0.41746 -0.187397,-0.55751 -0.17852,-0.24257 -0.191766,-0.24336 -0.2796,-0.0167 -0.103751,0.26772 0.127614,0.87709 0.333007,0.87709 0.07369,0 0.13399,-0.1363 0.13399,-0.30287 z m 1.118377,-0.3465 c -0.257831,-0.4986 -0.255055,-0.91192 0.0069,-1.0124 0.388056,-0.14891 0.662919,0.42274 0.594026,1.23544 -0.02586,0.30506 -0.399458,0.16637 -0.600829,-0.22304 z m 0.453961,-0.17049 c -0.0038,-0.35065 -0.164862,-0.74783 -0.275478,-0.67946 -0.135735,0.0839 -0.156484,0.62831 -0.02881,0.75598 0.141686,0.14169 0.306221,0.10031 0.304289,-0.0765 z m 1.124115,-0.30239 c -0.266081,-0.4061 -0.227976,-1.17336 0.05827,-1.17336 0.10822,0 0.303617,0.21862 0.434212,0.48581 0.184732,0.37796 0.205549,0.54541 0.09377,0.75427 -0.189237,0.35359 -0.320647,0.33864 -0.586251,-0.0667 z m 0.350593,-0.45824 c -0.04243,-0.36369 -0.101917,-0.43926 -0.266,-0.33785 -0.171329,0.10589 -0.0265,0.76045 0.153993,0.69597 0.08119,-0.029 0.1316,-0.19016 0.112007,-0.35812 z m 1.172919,-0.19187 c -0.357283,-0.45421 -0.475278,-0.8442 -0.306491,-1.01299 0.234892,-0.23489 0.526111,-0.002 0.692418,0.55261 0.212229,0.70835 0.0042,0.95644 -0.385927,0.46038 z m 0.0549,-0.81773 c -0.143298,-0.1433 -0.24156,0.0846 -0.138678,0.32162 0.09755,0.22476 0.104629,0.22455 0.158979,-0.005 0.03128,-0.1319 0.02215,-0.27456 -0.0203,-0.31701 z m -8.079009,0.36007 c 0,-0.0722 0.132817,-0.13027 0.295149,-0.12917 0.23867,0.002 0.257497,0.0263 0.09838,0.12917 -0.254323,0.16436 -0.393533,0.16436 -0.393533,0 z m 9.116107,-0.001 c -0.110256,-0.1784 0.05007,-0.65471 0.220366,-0.65471 0.07501,0 0.103859,0.0847 0.06412,0.18829 -0.03974,0.10356 -0.0061,0.21035 0.07478,0.2373 0.08087,0.027 0.103587,0.11932 0.05048,0.20524 -0.118059,0.19103 -0.299891,0.20163 -0.409741,0.0239 z m -8.394629,-0.2612 c 0.04458,-0.0721 0.213356,-0.13117 0.375038,-0.13117 0.16168,0 0.350045,-0.0498 0.418585,-0.11061 0.06853,-0.0608 0.478797,-0.21637 0.911684,-0.34564 0.653327,-0.1951 2.257254,-0.77823 3.410612,-1.23999 0.144296,-0.0578 0.813447,-0.37859 1.487002,-0.71294 0.673557,-0.33435 1.263855,-0.60761 1.311775,-0.60725 0.138896,0.001 -0.685738,0.6454 -0.831116,0.64943 -0.07215,0.002 -0.603416,0.23384 -1.180595,0.5152 -1.409404,0.68705 -1.849825,0.87632 -2.623549,1.12743 -0.360738,0.11708 -0.773948,0.26118 -0.918242,0.32023 -0.570224,0.23334 -2.014408,0.66649 -2.222184,0.66649 -0.121046,0 -0.1836,-0.059 -0.13901,-0.13118 z m 8.002444,-0.5237 c -0.110336,-0.17853 0.0372,-0.39454 0.269476,-0.39454 0.239318,0 0.239501,0.0994 6.21e-4,0.33832 -0.117777,0.11778 -0.219026,0.13885 -0.270097,0.0562 z m 54.79917,3.5802 c -0.0856,-1.10838 -2.21248,-6.89817 -3.78462,-10.30228 -5.34002,-11.56257 -11.96644,-21.21257 -20.24821,-29.48731 -3.93666,-3.9333 -7.20034,-6.62165 -10.30328,-8.48698 -5.0113,-3.01253 -9.96118,-4.61838 -14.256054,-4.62497 -3.611864,-0.006 -6.480353,0.78754 -7.353522,2.03313 -0.413766,0.59024 -0.477581,1.1191 -0.75905,6.29056 -0.303896,5.58351 -0.93687,9.09374 -2.421274,13.42743 -1.435948,4.19222 -3.246378,7.74952 -5.661802,11.12482 -0.457449,0.63924 -0.832175,1.19176 -0.832724,1.22783 -5.51e-4,0.0361 1.069381,0.59686 2.377625,1.24619 2.765541,1.37264 4.327168,2.29533 4.599552,2.71767 0.457528,0.7094 0.643799,2.31116 0.301778,2.59502 -0.267098,0.22167 -0.24852,0.8324 0.0328,1.07799 0.126258,0.11023 0.554224,0.27618 0.951036,0.36878 0.843161,0.19677 1.574129,0.82352 1.574129,1.3497 0,0.18168 0.03584,0.4237 0.07963,0.53782 0.09403,0.24504 0.576265,0.28142 0.576265,0.0435 0,-0.23408 -0.348379,-1.82532 -0.459499,-2.09879 -0.05549,-0.13655 -0.03445,-0.22956 0.05193,-0.22956 0.07986,0 0.145212,0.0893 0.145212,0.19855 0,0.1092 0.05262,0.30105 0.116919,0.42633 0.06431,0.12528 0.218052,0.58196 0.341658,1.01484 0.123607,0.43289 0.397936,1.0515 0.609621,1.3747 0.211686,0.32321 0.41736,0.73642 0.457054,0.91825 0.468851,2.14768 1.021849,3.33859 2.266797,4.88165 0.817682,1.01348 1.92584,1.94223 2.317411,1.94223 0.346341,0 0.415023,-0.45381 0.306217,-2.02334 L 82.041052,69.05936 80.986273,66.9198 c -0.580131,-1.17676 -1.054781,-2.16849 -1.054781,-2.20385 0,-0.0353 -0.168765,-0.4347 -0.375031,-0.88742 -0.206267,-0.45273 -0.454437,-1.05927 -0.551489,-1.34786 -0.09704,-0.28859 -0.223437,-0.58079 -0.280856,-0.64933 -0.142492,-0.17009 -0.135583,-0.68419 0.0071,-0.52471 0.06131,0.0685 0.213718,0.39026 0.338713,0.71492 0.882095,2.29118 2.718394,5.85047 3.826133,7.41619 1.147639,1.6221 2.915656,2.95326 3.39457,2.5558 0.251889,-0.20905 0.253116,-0.78122 0.0042,-1.96447 -0.230727,-1.09683 -0.42555,-1.50001 -1.663715,-3.44298 -0.90955,-1.42729 -2.076041,-3.73926 -2.076041,-4.11467 0,-0.10314 -0.05902,-0.18751 -0.131177,-0.18751 -0.07215,0 -0.131179,-0.0885 -0.131179,-0.19677 0,-0.33283 0.228653,-0.21773 0.32427,0.16324 0.04969,0.198 0.140235,0.4201 0.201201,0.49356 0.06096,0.0735 0.390389,0.66409 0.732051,1.31251 1.820758,3.45551 3.756104,5.74897 5.603348,6.64018 0.54231,0.26164 0.64774,0.27701 0.75796,0.11048 0.18606,-0.2811 0.0229,-1.20225 -0.43899,-2.47882 -0.32457,-0.89699 -0.64643,-1.43598 -1.62858,-2.72725 -1.196652,-1.57329 -1.84446,-2.51947 -2.390116,-3.49096 -0.438843,-0.78132 -0.122984,-0.54885 0.438742,0.32292 1.532194,2.37787 3.737104,4.92627 5.021724,5.80402 1.04608,0.71475 1.65127,0.84238 1.71938,0.36259 0.0919,-0.64735 -0.52563,-1.8741 -1.54497,-3.06914 -2.58615,-3.03189 -3.06371,-3.61753 -3.42296,-4.1976 -0.21224,-0.3427 -0.360649,-0.62309 -0.3298,-0.62309 0.0309,0 0.67359,0.75543 1.42831,1.67874 2.05169,2.51001 3.59301,3.84214 4.97754,4.30201 0.69508,0.23087 1.2751,0.16076 1.2751,-0.15412 0,-0.11138 -0.16215,-0.53823 -0.36032,-0.94853 -0.26212,-0.54269 -0.71754,-1.08566 -1.67098,-1.9922 -2.03592,-1.93578 -3.80825,-3.77662 -4.27784,-4.44318 -0.26809,-0.38055 0.22971,0.0558 1.33378,1.16902 2.50681,2.52767 4.36727,3.83564 5.9652,4.19375 1.11303,0.24944 1.27765,-0.28384 0.47226,-1.52994 -0.41851,-0.64752 -0.74037,-0.93649 -1.86928,-1.67824 -0.75004,-0.49283 -1.87189,-1.29965 -2.49299,-1.79294 -1.23019,-0.97705 -3.4613,-3.2379 -3.68945,-3.73863 -0.0784,-0.17206 -0.19209,-0.31284 -0.25266,-0.31284 -0.0606,0 -0.11012,-0.0566 -0.11012,-0.12573 0,-0.0692 0.79881,0.66709 1.77513,1.6361 2.89298,2.87132 5.78218,4.80801 7.1727,4.80801 0.85112,0 1.1995,-0.20963 1.08978,-0.65574 -0.29732,-1.20878 -1.52155,-2.47768 -4.07116,-4.21969 -1.00315,-0.6854 -2.32802,-1.63519 -2.94415,-2.11064 -1.40386,-1.08332 -4.019369,-3.5693 -3.823846,-3.63448 0.08036,-0.0268 0.721556,0.49372 1.424866,1.15667 2.41704,2.27835 6.41651,5.06028 8.30472,5.77657 1.01498,0.38503 2.35702,0.43842 2.68848,0.10696 0.19044,-0.19042 0.19048,-0.25164 4.6e-4,-0.70638 -0.4952,-1.18519 -2.04995,-2.664 -3.71251,-3.53117 -2.56607,-1.33843 -5.53252,-3.71932 -7.62638,-6.12098 -1.945079,-2.23101 -1.831852,-2.22749 0.39224,0.0122 2.81027,2.82998 5.40973,4.80346 8.05297,6.1137 1.12572,0.55801 1.23907,0.58653 2.4387,0.61357 1.93861,0.0437 2.15012,-0.36196 1.05371,-2.02085 -0.79208,-1.19841 -1.3658,-1.7404 -4.01712,-3.7949 -4.07843,-3.16035 -6.45158,-5.36566 -8.60409,-7.99556 -1.530415,-1.86984 -3.361196,-4.63056 -4.267922,-6.43581 -0.656946,-1.30795 -0.197614,-0.75802 0.866043,1.03687 3.135929,5.29177 6.784219,9.0276 14.281299,14.62396 1.54005,1.14959 3.69463,2.82272 4.78798,3.71807 2.31954,1.89948 3.21253,2.40512 4.24753,2.40512 0.6995,0 1.2166,-0.16366 1.2166,-0.38503 0,-0.17624 -1.54638,-2.04915 -2.88314,-3.49194 -1.47221,-1.58897 -3.88942,-3.84367 -4.82074,-4.49661 -0.76665,-0.53749 -1.07788,-0.97371 -0.41789,-0.58572 2.05257,1.20668 5.23125,4.27724 7.92821,7.65859 1.00218,1.2565 2.10436,2.56044 2.4493,2.89765 0.76188,0.74482 1.76616,1.15238 3.08976,1.25389 0.81525,0.0625 0.95103,0.0429 0.95103,-0.13724 0,-0.49547 -3.40423,-5.49007 -5.53676,-8.1234 -1.40316,-1.73267 -4.5792,-4.92375 -5.64795,-5.67468 -0.84455,-0.5934 -1.00429,-0.85721 -0.26053,-0.43024 1.59273,0.91433 4.57376,3.84016 6.95566,6.82683 1.45923,1.82976 4.11655,5.74869 6.46433,9.53342 1.76204,2.8405 2.4526,3.65151 3.57777,4.20186 0.88453,0.43266 2.52995,0.88518 2.6785,0.73664 0.11198,-0.11198 -0.3617,-1.04001 -2.027,-3.97132 -5.19427,-9.14306 -9.84451,-15.43115 -14.94707,-20.21152 -1.36464,-1.27847 -3.82536,-3.34552 -4.76031,-3.99874 -0.17601,-0.12298 -0.28786,-0.25576 -0.24855,-0.29508 0.11821,-0.11821 2.14661,1.39591 3.84512,2.87023 3.05459,2.65138 6.16963,6.012 8.68348,9.36802 3.47712,4.64202 6.75529,10.0385 10.93312,17.99801 1.66381,3.16985 2.05148,3.78935 2.65726,4.24638 1.07628,0.812 2.91296,1.67667 3.43981,1.61938 0.20965,-0.0228 0.25585,-0.11281 0.22997,-0.44807 z M 82.882968,33.29348 c -0.04458,-0.0721 -0.01857,-0.13117 0.05785,-0.13117 0.07641,0 0.138919,0.059 0.138919,0.13117 0,0.0722 -0.02604,0.13118 -0.05785,0.13118 -0.03181,0 -0.09434,-0.059 -0.138919,-0.13118 z M 56.032596,72.09002 c 0.482482,-0.1619 0.899408,-0.30704 0.926505,-0.32256 0.05003,-0.0286 -0.622465,-0.62365 -1.046851,-0.92623 -0.201542,-0.1437 -0.277099,-0.1073 -0.567406,0.27331 -0.382027,0.50086 -0.59111,1.26982 -0.345269,1.26982 0.08568,0 0.550541,-0.13245 1.033021,-0.29434 z m 10.727326,-1.01553 c -0.257907,-0.41785 -0.516711,-0.98766 -0.575119,-1.26626 -0.101234,-0.48286 -0.130039,-0.50654 -0.616152,-0.50654 -0.465057,0 -0.566031,-0.0693 -1.146879,-0.78706 -0.350308,-0.43289 -0.784909,-1.08908 -0.965781,-1.45821 l -0.328856,-0.67115 0.278864,-0.57504 c 0.236279,-0.48722 0.255662,-0.63514 0.126932,-0.96857 L 63.381,64.44813 62.801803,65.10401 c -0.318558,0.36074 -0.826438,1.03123 -1.128624,1.48997 l -0.549428,0.83409 0.558461,1.10078 c 0.311065,0.61314 0.642257,1.10078 0.747617,1.10078 0.136589,0 0.04294,-0.29081 -0.337021,-1.0465 -0.289395,-0.57558 -0.526174,-1.15407 -0.526174,-1.28554 0,-0.60143 0.701046,-0.73637 1.179535,-0.22705 0.168865,0.17975 0.697269,1.03865 1.174234,1.90866 0.842611,1.53698 0.900592,1.60704 2.044239,2.47018 0.998813,0.75384 1.183633,0.85022 1.220618,0.63658 0.02398,-0.13847 -0.16743,-0.59363 -0.425338,-1.01147 z m -1.461795,-0.53804 c -0.04848,-0.0784 -0.02245,-0.2083 0.05784,-0.28859 0.10719,-0.10719 0.145985,-0.0693 0.145985,0.1426 0,0.31673 -0.06815,0.36554 -0.203831,0.14599 z m -7.495955,0.30658 c 0.261506,-0.19841 0.477616,-0.45375 0.480245,-0.56744 0.0076,-0.32608 -0.536862,-0.73622 -1.110228,-0.83641 -0.288589,-0.0504 -0.784563,-0.23568 -1.102161,-0.41166 -0.317599,-0.17597 -0.608516,-0.28889 -0.646483,-0.25093 -0.139719,0.13972 0.707918,1.67815 1.12769,2.04672 0.535267,0.46997 0.655005,0.47185 1.250937,0.0197 z m 5.740208,-1.97225 c -0.366076,-0.71268 -0.81402,-1.43522 -0.99543,-1.60564 -0.2909,-0.27329 -0.352706,-0.287 -0.52358,-0.11612 -0.170874,0.17087 -0.140793,0.30162 0.254825,1.10762 0.246712,0.50263 0.568297,1.08793 0.714633,1.30066 0.281765,0.40962 1.103045,0.91581 1.173457,0.72326 0.02293,-0.0627 -0.257827,-0.6971 -0.623905,-1.40978 z m -4.855637,0.77009 c -0.137705,-0.2573 -0.399545,-0.37889 -0.399545,-0.18554 0,0.13101 0.426835,0.57826 0.490808,0.51429 0.03033,-0.0303 -0.01074,-0.17828 -0.09127,-0.32875 z m 1.366526,-0.20123 c 0.998858,-0.26017 1.021662,-0.28279 0.774725,-0.76849 -0.117132,-0.23038 -0.229106,-0.4376 -0.24883,-0.46049 -0.04283,-0.0497 -1.369987,0.60738 -1.600528,0.79242 -0.115001,0.0923 -0.123078,0.20065 -0.02819,0.37797 0.159646,0.29831 0.178603,0.29931 1.102811,0.0586 z m 1.436818,-0.8563 c -0.301444,-0.55385 -0.57934,-0.84018 -0.57934,-0.59693 0,0.1473 0.602263,1.32387 0.721476,1.40946 0.269463,0.19346 0.205083,-0.17457 -0.142136,-0.81253 z m -2.927139,0.0903 c 0.245149,-0.16508 0.858935,-0.89877 1.363968,-1.63042 1.144782,-1.65846 1.384313,-1.9181 2.353874,-2.55145 0.734554,-0.47984 1.528809,-0.76825 4.532941,-1.646 3.274507,-0.95674 5.383094,-1.8245 5.735554,-2.36039 0.124032,-0.18858 0.160017,-0.42915 0.103012,-0.68868 -0.09824,-0.44725 -0.216617,-0.49571 -0.468784,-0.19186 -0.276842,0.33357 -1.362904,0.82908 -2.318736,1.05791 -1.392751,0.33342 -3.998036,0.30355 -5.543418,-0.0635 -4.820354,-1.14509 -5.847751,-1.40978 -7.263665,-1.87134 -0.874946,-0.28521 -1.924374,-0.72339 -2.33206,-0.97371 -0.407686,-0.25033 -0.789595,-0.45515 -0.848688,-0.45515 -0.188087,0 -0.833766,0.82261 -1.390019,1.7709 -1.392489,2.3739 -1.750916,2.82031 -2.264434,2.82031 -0.44163,0 -0.468657,0.1104 -0.200077,0.81724 0.321624,0.84645 0.51695,1.05042 1.562415,1.63155 1.30247,0.724 1.633685,1.0159 2.557045,2.25356 1.45252,1.94692 2.040854,2.37911 3.240474,2.38043 0.549334,6e-4 0.847407,-0.075 1.180597,-0.29934 z m -2.630943,-1.04723 c -0.177068,-0.0896 -0.51649,-0.41799 -0.754269,-0.72974 -0.37838,-0.49609 -0.432328,-0.6654 -0.432328,-1.35681 0,-0.72351 0.03753,-0.82751 0.446002,-1.23598 0.418725,-0.41873 0.694375,-0.51244 1.324893,-0.45041 1.074937,0.10575 1.995904,2.08337 1.456226,3.12699 -0.369703,0.71493 -1.313702,1.01376 -2.040524,0.64595 z m 1.145409,-0.29977 c 0.611894,-0.42859 0.259627,-2.14385 -0.575143,-2.80048 -0.19211,-0.15111 -0.452852,-0.27476 -0.579425,-0.27476 -0.783753,0 -1.160932,1.23386 -0.670844,2.19451 0.494638,0.96957 1.207513,1.31352 1.825412,0.88073 z M 55.65899,66.54205 c -0.361024,-0.38429 -0.381852,-1.07849 -0.04004,-1.33453 0.293408,-0.21978 0.616574,-0.0207 0.885094,0.54512 0.203459,0.42876 0.2036,0.48394 0.0021,0.7916 -0.273118,0.41683 -0.453855,0.41636 -0.847065,-0.002 z m 0.791725,-0.36824 c 0,-0.16919 -0.109597,-0.4068 -0.243547,-0.52802 -0.211865,-0.19173 -0.26416,-0.19557 -0.402002,-0.0295 -0.128096,0.15435 -0.106571,0.2187 0.112369,0.33587 0.148953,0.0797 0.270824,0.23141 0.270824,0.33709 0,0.10568 0.05902,0.19215 0.131177,0.19215 0.07215,0 0.131179,-0.13842 0.131179,-0.30761 z M 57.8363,66.05654 c -0.121519,-0.91606 -0.822445,-2.03146 -1.093606,-1.74028 -0.05236,0.0562 -0.02219,0.12834 0.06706,0.16024 0.262311,0.0937 0.821556,1.33192 0.821556,1.81893 0,0.24659 0.06664,0.44835 0.148078,0.44835 0.102741,0 0.120166,-0.21041 0.05691,-0.68724 z m 1.437176,-1.47719 c -0.05153,-0.1443 -0.173899,-0.47851 -0.271933,-0.74269 -0.09803,-0.26419 -0.389165,-1.12012 -0.646956,-1.90208 -0.257791,-0.78195 -0.525989,-1.52423 -0.595993,-1.64951 -0.165142,-0.29553 -0.163089,-0.62488 0.0039,-0.62488 0.07215,0 0.131178,0.11458 0.131178,0.25462 0,0.14004 0.05904,0.29109 0.131177,0.33568 0.07215,0.0446 0.131176,0.21336 0.131176,0.37504 0,0.16168 0.04836,0.35005 0.107461,0.41859 0.0591,0.0685 0.302288,0.74443 0.540406,1.50198 0.238116,0.75755 0.491766,1.50436 0.563665,1.65957 0.0719,0.15522 0.101222,0.36183 0.06516,0.45913 -0.04588,0.12378 -0.09369,0.0981 -0.159246,-0.0854 z m -5.754842,-1.01663 c -0.132856,-1.10607 -0.09974,-4.14029 0.04618,-4.23047 0.0857,-0.053 0.131178,0.7857 0.131178,2.41904 0,1.37506 -0.02129,2.50011 -0.04732,2.50011 -0.02603,0 -0.08454,-0.30991 -0.130038,-0.68868 z m 14.082162,4.22442 c 2.114996,-1.31851 5.060211,-2.84977 6.165341,-3.20543 1.356817,-0.43666 1.34783,-0.43073 1.249855,-0.82552 -0.09687,-0.39031 -0.556108,-0.94774 -0.780807,-0.94774 -0.07761,10e-6 -0.304034,0.2042 -0.50317,0.45378 -0.652029,0.81718 -3.191116,1.83626 -6.377423,2.55963 -1.584679,0.35977 -3.201633,0.53488 -3.371388,0.36513 -0.03932,-0.0393 0.301086,-0.11289 0.756434,-0.16351 1.594896,-0.17729 3.657024,-0.63183 4.500877,-0.99208 0.144294,-0.0616 0.527988,-0.18037 0.852652,-0.26393 0.324665,-0.0836 0.826419,-0.25619 1.115008,-0.38363 0.28859,-0.12744 0.789807,-0.34219 1.113814,-0.47722 0.747909,-0.3117 1.453706,-0.92063 1.357544,-1.17122 -0.0905,-0.23586 -0.700461,-0.25177 -0.700461,-0.0183 0,0.23111 -0.781307,0.95913 -1.147803,1.06952 -0.162332,0.0489 -0.29515,0.14395 -0.29515,0.21124 0,0.0673 -0.147574,0.12234 -0.327944,0.12234 -0.180369,0 -0.327943,0.059 -0.327943,0.13117 0,0.0721 -0.165284,0.13118 -0.367297,0.13118 -0.202013,0 -0.423375,0.0525 -0.491916,0.11672 -0.266585,0.24968 -4.391137,1.06269 -5.395139,1.06346 -0.605907,4.6e-4 -0.99663,0.2781 -0.866952,0.61603 0.05285,0.13772 0.03039,0.18241 -0.06274,0.12485 -0.183053,-0.11313 -0.02598,0.47101 0.291982,1.08589 0.311015,0.60144 1.240474,1.58435 1.497692,1.58383 0.117068,-2.4e-4 1.068785,-0.53404 2.114926,-1.18621 z m -7.256873,-0.0267 c 0.600967,-0.63593 2.171963,-2.86582 2.082237,-2.95555 -0.185145,-0.18514 -1.672398,1.52516 -2.627137,3.02114 -0.335318,0.52541 0.02769,0.48172 0.5449,-0.0656 z m 4.239792,-3.08391 c 0,-0.15187 -0.538492,-0.45503 -0.635661,-0.35786 -0.04697,0.047 0.02909,0.16912 0.169024,0.27145 0.280667,0.20523 0.466637,0.23967 0.466637,0.0864 z m 1.883823,-0.26529 c 0.231962,0.0443 0.303289,0.0122 0.254595,-0.11469 -0.08364,-0.21795 0.10438,-0.22461 0.554267,-0.0196 0.266511,0.12143 0.400248,0.12143 0.594691,0 0.137969,-0.0862 0.369716,-0.15666 0.514989,-0.15666 0.145275,0 0.264136,-0.0508 0.264136,-0.1129 0,-0.0621 0.309906,-0.1496 0.688682,-0.19445 0.378773,-0.0448 0.747711,-0.15912 0.819857,-0.25394 0.179826,-0.23635 0.937566,-0.53221 1.102307,-0.43039 0.07388,0.0457 0.254523,-0.0372 0.401451,-0.18413 0.146926,-0.14693 0.330496,-0.26714 0.407934,-0.26714 0.31066,0 0.02472,-0.46278 -0.435771,-0.70528 -0.543208,-0.28606 -0.7643,-0.20656 -0.518807,0.18653 0.183334,0.29357 0.126161,0.32072 -0.22004,0.10451 -0.133759,-0.0835 -0.346211,-0.11235 -0.472116,-0.064 -0.188034,0.0722 -0.199512,0.12327 -0.06428,0.28623 0.234047,0.28201 0.05285,0.39874 -0.21036,0.13552 -0.275498,-0.2755 -0.660011,-0.2102 -0.605653,0.10285 0.03526,0.20301 0.0023,0.21309 -0.251969,0.077 -0.242981,-0.13004 -0.320207,-0.1187 -0.455938,0.0669 -0.08987,0.12291 -0.271638,0.20579 -0.403917,0.18416 -0.272489,-0.0445 -0.830807,0.38459 -0.830807,0.63857 0,0.23391 -0.385355,0.21038 -0.477272,-0.0292 -0.04304,-0.11217 -0.238683,-0.19677 -0.455004,-0.19677 -0.384877,0 -0.515368,0.18567 -0.215527,0.30666 0.09151,0.0369 0.05443,0.0707 -0.08392,0.0765 -0.13634,0.006 -0.327449,-0.0929 -0.424686,-0.21921 -0.166073,-0.21564 -0.191001,-0.21145 -0.411135,0.069 -0.185033,0.23575 -0.268184,0.26473 -0.395173,0.13774 -0.123192,-0.12319 -0.16083,-0.12399 -0.16083,-0.003 0,0.0866 0.05904,0.15741 0.131178,0.15741 0.07215,0 0.131177,0.0852 0.131177,0.18933 0,0.10413 0.132791,0.28234 0.295091,0.39602 0.269639,0.18886 0.3087,0.18808 0.452847,-0.009 0.09993,-0.13667 0.275867,-0.19317 0.479998,-0.15414 z m -1.359113,0.14568 c 0,-0.16473 -0.433484,-0.56783 -0.610629,-0.56783 -0.238635,0 -0.221856,0.1287 0.05313,0.40752 0.229244,0.23245 0.557503,0.32684 0.557503,0.16031 z M 67.40403,63.3332 c 0.04458,-0.0721 0.01857,-0.13117 -0.05785,-0.13117 -0.0764,0 -0.138919,0.059 -0.138919,0.13117 0,0.0721 0.02604,0.13118 0.05784,0.13118 0.03181,0 0.09434,-0.059 0.138919,-0.13118 z m 2.862996,-3.14844 c 0.951402,-0.31115 1.961297,-0.98148 2.032035,-1.3488 0.07797,-0.40486 -0.890824,-1.08865 -3.279697,-2.31485 -1.297598,-0.66605 -2.389752,-1.18052 -2.427008,-1.14326 -0.03725,0.0373 0.02683,0.20275 0.142407,0.36777 0.555528,0.79312 0.110114,1.51171 -1.364142,2.20078 l -0.852495,0.39846 0.593918,-0.0212 c 0.600476,-0.0214 2.75912,0.64912 3.382068,1.05059 0.544791,0.35111 0.09527,0.56205 -1.368585,0.64222 -1.416335,0.0776 -3.11434,-0.18549 -3.707967,-0.57445 l -0.324744,-0.21278 0.311006,-0.25184 c 0.171053,-0.13851 0.47699,-0.28503 0.679861,-0.32561 0.20287,-0.0406 0.368854,-0.12542 0.368854,-0.18855 0,-0.14365 -0.05313,-0.14306 -0.926944,0.0104 -1.928292,0.33859 -4.567732,0.25372 -6.082063,-0.19558 -0.749966,-0.22251 -0.969382,-0.24353 -0.789491,-0.0756 0.184055,0.1718 2.15008,0.71868 5.043772,1.40301 1.406879,0.3327 2.882625,0.68362 3.279436,0.77982 1.156512,0.28035 4.168574,0.16619 5.289779,-0.20049 z M 68.338933,58.68403 C 66.656001,58.0438 66.452459,57.7266 67.36683,57.16911 c 0.456237,-0.27817 1.006619,-0.33789 1.383549,-0.15014 0.125279,0.0624 0.564726,0.26715 0.976549,0.455 0.911638,0.41583 1.260104,0.926 0.942355,1.37965 -0.284405,0.40604 -0.943271,0.35809 -2.33035,-0.16959 z m 2.100971,-0.009 c 0.105313,-0.27444 -0.106354,-0.49291 -0.984218,-1.01585 -1.024928,-0.61055 -1.317135,-0.66769 -1.827414,-0.35737 -0.687454,0.41806 -0.631938,0.48831 0.890766,1.12712 1.103137,0.46279 1.803292,0.55249 1.920866,0.2461 z m -2.390716,1.03706 c 0.279792,-0.10737 0.263638,-0.31391 -0.02455,-0.31391 -0.127623,0 -0.668574,-0.18341 -1.202109,-0.40758 -0.823612,-0.34604 -1.07079,-0.39481 -1.637234,-0.32301 -0.925821,0.11736 -1.519822,0.32534 -1.519822,0.53214 0,0.32423 3.736058,0.76089 4.383715,0.51236 z M 63.94108,58.01177 c 1.810631,-0.40639 2.880315,-1.11775 2.671252,-1.77645 -0.121821,-0.38382 -0.774173,-1.08944 -1.49932,-1.62175 -0.754793,-0.55407 -0.892481,-0.57075 -0.946911,-0.11472 -0.08685,0.72766 -1.437309,1.22636 -3.320943,1.22636 -1.818173,0 -3.242375,-0.52917 -3.429368,-1.27421 -0.04141,-0.16495 -0.130439,-0.29992 -0.19786,-0.29992 -0.243362,0 -1.564067,1.09359 -1.943024,1.60889 -0.422789,0.57491 -0.38922,0.82165 0.179775,1.32139 0.459083,0.4032 1.824155,0.9085 3.094872,1.1456 0.901191,0.16815 4.285378,0.0331 5.391527,-0.21519 z m -7.555954,-0.0565 c -0.04458,-0.0722 -0.157277,-0.13118 -0.250415,-0.13118 -0.314358,0 -1.251884,-0.78211 -1.335134,-1.1138 -0.100832,-0.40176 -0.258654,-0.42004 -0.45524,-0.0527 -0.184753,0.34521 -0.118832,0.41308 0.943056,0.97086 0.849163,0.44604 1.244078,0.56362 1.097733,0.32683 z m 5.640628,-2.62355 c 0.05201,-0.0842 -0.394749,-0.13118 -1.246185,-0.13118 -0.851434,0 -1.298194,-0.047 -1.246186,-0.13118 0.04458,-0.0722 0.372738,-0.13117 0.729218,-0.13117 0.463073,0 0.648146,-0.0516 0.648146,-0.18071 0,-0.27087 -0.2327,-0.40234 -1.288421,-0.72797 -0.920191,-0.28382 -0.96772,-0.28633 -1.133209,-0.06 -0.232817,0.3184 -0.119593,0.55199 0.372054,0.76757 0.391047,0.17148 0.394806,0.18008 0.08191,0.18751 -0.480626,0.0114 -0.975008,-0.41103 -0.884787,-0.75604 0.107525,-0.41117 -0.138358,-0.48095 -0.316561,-0.0898 -0.08417,0.18475 -0.128698,0.35503 -0.09895,0.37841 0.660355,0.51888 1.056451,0.74382 1.312671,0.74545 0.173559,10e-4 0.404107,0.0592 0.512327,0.12917 0.260279,0.16821 2.454004,0.16821 2.55796,0 z m 0.983833,-0.26236 c 0,-0.0722 -0.162332,-0.13566 -0.360739,-0.14115 -0.346421,-0.01 -0.342515,-0.0165 0.09838,-0.17485 0.347421,-0.12476 0.469237,-0.25017 0.500701,-0.51548 0.05689,-0.47973 -0.241015,-0.5638 -0.997563,-0.2815 -1.150278,0.4292 -1.465638,0.98181 -0.560299,0.98181 0.284333,0 0.55345,0.059 0.59804,0.13117 0.04458,0.0721 0.225163,0.13118 0.401274,0.13118 0.176111,0 0.320202,-0.059 0.320202,-0.13118 z m 0.712105,-0.33731 c 0.234565,-0.23456 0.268462,-0.52692 0.07496,-0.64652 -0.07215,-0.0446 -0.131178,0.0333 -0.131178,0.17303 0,0.13975 -0.132818,0.34674 -0.295149,0.45998 -0.236738,0.16514 -0.251573,0.20725 -0.07496,0.21277 0.121104,0.004 0.312951,-0.0859 0.426327,-0.19926 z m -2.914837,-1.17124 c -0.02522,-0.25913 -0.212623,-0.55376 -0.548725,-0.86268 -0.577053,-0.5304 -1.826209,-1.0112 -1.980127,-0.76216 -0.111856,0.18099 0.05634,0.82118 0.322469,1.22733 0.217604,0.33211 1.424757,0.84352 1.916743,0.81203 0.281746,-0.018 0.322548,-0.0764 0.28964,-0.41452 z m 1.414829,0.11065 c 0.642495,-0.27865 0.854531,-0.44847 1.058065,-0.84743 0.277422,-0.54379 0.327153,-0.97376 0.126943,-1.09749 -0.18007,-0.11129 -1.469895,0.52201 -1.818141,0.8927 -0.446946,0.47575 -0.633153,1.40069 -0.281986,1.40069 0.06137,0 0.473183,-0.15681 0.915119,-0.34847 z m -11.247628,-0.5976 c 0.419521,-0.29348 0.450426,-0.43962 0.129313,-0.61147 -0.15963,-0.0854 -0.309843,-0.0665 -0.484194,0.061 -0.569747,0.41661 -1.516508,0.13147 -1.842175,-0.55482 -0.232996,-0.49101 -0.530192,-0.57515 -0.653972,-0.18515 -0.149429,0.47081 0.584262,1.4768 1.178516,1.61591 0.445861,0.10437 1.294005,-0.0607 1.672512,-0.32545 z M 61.697811,52.1737 c 0,-0.12854 -0.71025,-0.21841 -1.180596,-0.14938 -0.494176,0.0725 -0.490983,0.1535 0.02014,0.51061 l 0.409138,0.28586 0.375659,-0.27773 c 0.206613,-0.15276 0.375659,-0.31897 0.375659,-0.36936 z M 50.293999,51.9165 c 0.162701,-0.0871 0.25373,-0.27443 0.25373,-0.52221 0,-0.30332 -0.0709,-0.40422 -0.329647,-0.46916 -0.615251,-0.15442 -0.934855,0.40972 -0.502675,0.88727 0.25412,0.2808 0.249852,0.28003 0.578592,0.1041 z m 12.125289,-0.2922 c 0.66085,-0.23626 0.760061,-0.36137 0.507687,-0.64024 -0.310244,-0.34282 -0.482372,-0.30423 -0.685013,0.15357 -0.163497,0.36937 -0.209276,0.39038 -0.655115,0.30069 -0.512984,-0.1032 -1.084234,-0.0952 -1.561548,0.0219 -0.162332,0.0398 -0.295148,0.0122 -0.295148,-0.0613 0,-0.0735 0.250876,-0.14053 0.557504,-0.1489 0.306626,-0.008 0.439443,-0.0409 0.295149,-0.0724 -0.144296,-0.0314 -0.404832,-0.12788 -0.57897,-0.21434 -0.249162,-0.12372 -0.328343,-0.12228 -0.37167,0.007 -0.0777,0.23143 -0.426724,0.2046 -0.426724,-0.0328 0,-0.24398 -0.139694,-0.24979 -0.455362,-0.019 -0.348668,0.25495 -0.172694,0.55696 0.41254,0.70801 0.674988,0.17422 2.767309,0.17292 3.25667,-0.002 z M 46.907556,50.64121 c 0.706069,-0.33228 1.27898,-0.68271 1.27898,-0.7823 0,-0.21099 -0.562876,-0.74332 -1.090246,-1.03107 -0.55546,-0.30307 -1.151871,-0.0444 -2.071594,0.89843 -0.807281,0.82758 -0.968727,1.28119 -0.543923,1.52825 0.36091,0.20991 1.044767,0.0371 2.426783,-0.61331 z m 15.017083,0.54476 c -0.04358,-0.0436 -0.15673,-0.0482 -0.251424,-0.0103 -0.104639,0.0419 -0.07356,0.073 0.07925,0.0793 0.138283,0.006 0.21576,-0.0253 0.17217,-0.0689 z m 0.02545,-0.5221 c 0.15946,-0.14941 0.134297,-0.19485 -0.172512,-0.3115 -0.19756,-0.0751 -0.739051,-0.13657 -1.203315,-0.13657 -0.753956,0 -0.844112,0.0277 -0.844112,0.25986 0,0.24838 0.08751,0.29295 0.852652,0.43427 0.420602,0.0777 1.164676,-0.0562 1.367287,-0.24606 z"
       id="path20-8-4" /></g></svg>
